<svg width="64" height="64" viewBox="0 0 64 64" fill="none" xmlns="http://www.w3.org/2000/svg">
<g clip-path="url(#clip0_73_215274)">
<path opacity="0.2" d="M53.3198 26.0024L48.8198 18.2074C48.152 17.0684 47.0609 16.2397 45.7844 15.9022C44.5079 15.5647 43.1498 15.7458 42.0063 16.406C40.8629 17.0662 40.027 18.1519 39.6811 19.4261C39.3351 20.7003 39.5072 22.0596 40.1598 23.2074L33.1598 11.0824C32.4783 9.9721 31.3904 9.17163 30.1277 8.85135C28.8649 8.53107 27.527 8.71628 26.3988 9.36756C25.2705 10.0188 24.441 11.0848 24.0868 12.3384C23.7326 13.5921 23.8817 14.9345 24.5023 16.0799L22.5023 12.6174C21.8345 11.4784 20.7434 10.6497 19.4669 10.3122C18.1904 9.97472 16.8323 10.1558 15.6888 10.816C14.5454 11.4762 13.7095 12.5619 13.3636 13.8361C13.0176 15.1103 13.1897 16.4696 13.8423 17.6174L16.8423 22.8249L16.5498 23.0749C15.6318 22.3702 14.4979 22.0058 13.3412 22.0437C12.1846 22.0817 11.077 22.5197 10.2072 23.283C9.33739 24.0463 8.7593 25.0877 8.5715 26.2296C8.38369 27.3715 8.59779 28.5432 9.1773 29.5449L18.6773 46.0024C21.3295 50.5963 25.6979 53.9484 30.8216 55.3214C35.9454 56.6944 41.4047 55.9758 45.9985 53.3236C50.5924 50.6715 53.9446 46.303 55.3176 41.1793C56.6906 36.0556 55.972 30.5963 53.3198 26.0024ZM38.9223 41.1624L38.9648 41.1374L38.9998 41.1974L38.9223 41.1624Z" fill="white"/>
<path d="M48 8C49.6629 8.42402 51.2256 9.17234 52.5985 10.202C53.9714 11.2317 55.1273 12.5224 56 14" stroke="white" stroke-width="2" stroke-linecap="round" stroke-linejoin="round"/>
<path d="M18.655 58C15.905 55.8275 13.8075 53.13 12 50" stroke="white" stroke-width="2" stroke-linecap="round" stroke-linejoin="round"/>
<path d="M24.5024 16.0754C23.8498 14.9276 23.6777 13.5683 24.0236 12.2941C24.3696 11.0199 25.2055 9.93423 26.3489 9.27404C27.4923 8.61386 28.8505 8.43275 30.127 8.77023C31.4035 9.10771 32.4946 9.93638 33.1624 11.0754L40.1624 23.2004" stroke="white" stroke-width="2" stroke-linecap="round" stroke-linejoin="round"/>
<path d="M17.8364 24.5431L13.8364 17.6156C13.1734 16.4669 12.9938 15.1018 13.3372 13.8207C13.6807 12.5396 14.5189 11.4474 15.6677 10.7844C16.8164 10.1213 18.1814 9.94176 19.4625 10.2852C20.7437 10.6286 21.8359 11.4669 22.4989 12.6156L30.9989 27.3381" stroke="white" stroke-width="2" stroke-linecap="round" stroke-linejoin="round"/>
<path d="M38.9999 41.1904C37.6739 38.8936 37.3146 36.1642 38.001 33.6024C38.6873 31.0407 40.3632 28.8565 42.6599 27.5304L40.1599 23.2004C39.5074 22.0526 39.3353 20.6933 39.6812 19.4191C40.0271 18.1449 40.863 17.0592 42.0065 16.399C43.1499 15.7389 44.5081 15.5577 45.7845 15.8952C47.061 16.2327 48.1522 17.0614 48.8199 18.2004L53.3199 25.9954C55.9724 30.5896 56.6913 36.0494 55.3183 41.1736C53.9453 46.2978 50.5929 50.6667 45.9987 53.3192C41.4045 55.9717 35.9447 56.6905 30.8205 55.3175C25.6963 53.9445 21.3274 50.5921 18.6749 45.9979L9.17494 29.5429C8.5119 28.3942 8.33234 27.0291 8.67577 25.748C9.01919 24.4669 9.85747 23.3747 11.0062 22.7117C12.1549 22.0486 13.52 21.8691 14.8011 22.2125C16.0822 22.5559 17.1744 23.3942 17.8374 24.5429L23.3374 34.0679" stroke="white" stroke-width="2" stroke-linecap="round" stroke-linejoin="round"/>
</g>
<defs>
<clipPath id="clip0_73_215274">
<rect width="64" height="64" fill="white"/>
</clipPath>
</defs>
</svg>
