<svg width="64" height="64" viewBox="0 0 64 64" fill="none" xmlns="http://www.w3.org/2000/svg">
<g clip-path="url(#clip0_73_215259)">
<path opacity="0.2" d="M16 12H48C48.5304 12 49.0391 12.2107 49.4142 12.5858C49.7893 12.9609 50 13.4696 50 14V27.775C50 37.7 42.0625 45.925 32.1375 46C29.7622 46.0181 27.4067 45.566 25.207 44.6695C23.0072 43.773 21.0066 42.45 19.3206 40.7768C17.6346 39.1035 16.2964 37.1131 15.3832 34.9202C14.47 32.7273 13.9999 30.3754 14 28V14C14 13.4696 14.2107 12.9609 14.5858 12.5858C14.9609 12.2107 15.4696 12 16 12Z" fill="white"/>
<path d="M24 56H40" stroke="white" stroke-width="2" stroke-linecap="round" stroke-linejoin="round"/>
<path d="M32 46V56" stroke="white" stroke-width="2" stroke-linecap="round" stroke-linejoin="round"/>
<path d="M14.5 32H12C9.87827 32 7.84344 31.1571 6.34315 29.6569C4.84285 28.1566 4 26.1217 4 24V20C4 19.4696 4.21071 18.9609 4.58579 18.5858C4.96086 18.2107 5.46957 18 6 18H14" stroke="white" stroke-width="2" stroke-linecap="round" stroke-linejoin="round"/>
<path d="M49.5 32H52C54.1217 32 56.1566 31.1571 57.6569 29.6569C59.1571 28.1566 60 26.1217 60 24V20C60 19.4696 59.7893 18.9609 59.4142 18.5858C59.0391 18.2107 58.5304 18 58 18H50" stroke="white" stroke-width="2" stroke-linecap="round" stroke-linejoin="round"/>
<path d="M16 12H48C48.5304 12 49.0391 12.2107 49.4142 12.5858C49.7893 12.9609 50 13.4696 50 14V27.775C50 37.7 42.0625 45.925 32.1375 46C29.7622 46.0181 27.4067 45.566 25.207 44.6695C23.0072 43.773 21.0066 42.45 19.3206 40.7768C17.6346 39.1035 16.2964 37.1131 15.3832 34.9202C14.47 32.7273 13.9999 30.3754 14 28V14C14 13.4696 14.2107 12.9609 14.5858 12.5858C14.9609 12.2107 15.4696 12 16 12Z" stroke="white" stroke-width="2" stroke-linecap="round" stroke-linejoin="round"/>
</g>
<defs>
<clipPath id="clip0_73_215259">
<rect width="64" height="64" fill="white"/>
</clipPath>
</defs>
</svg>
