<svg width="64" height="64" viewBox="0 0 64 64" fill="none" xmlns="http://www.w3.org/2000/svg">
<g clip-path="url(#clip0_73_215240)">
<path opacity="0.2" d="M20 50C24.4183 50 28 46.4183 28 42C28 37.5817 24.4183 34 20 34C15.5817 34 12 37.5817 12 42C12 46.4183 15.5817 50 20 50Z" fill="white"/>
<path opacity="0.2" d="M20 24C24.4183 24 28 20.4183 28 16C28 11.5817 24.4183 8 20 8C15.5817 8 12 11.5817 12 16C12 20.4183 15.5817 24 20 24Z" fill="white"/>
<path opacity="0.2" d="M44 50C48.4183 50 52 46.4183 52 42C52 37.5817 48.4183 34 44 34C39.5817 34 36 37.5817 36 42C36 46.4183 39.5817 50 44 50Z" fill="white"/>
<path opacity="0.2" d="M44 24C48.4183 24 52 20.4183 52 16C52 11.5817 48.4183 8 44 8C39.5817 8 36 11.5817 36 16C36 20.4183 39.5817 24 44 24Z" fill="white"/>
<path d="M8 56C9.39721 54.1371 11.209 52.625 13.2918 51.5836C15.3746 50.5422 17.6713 50 20 50C22.3287 50 24.6254 50.5422 26.7082 51.5836C28.791 52.625 30.6028 54.1371 32 56C33.3972 54.1371 35.209 52.625 37.2918 51.5836C39.3746 50.5422 41.6713 50 44 50C46.3287 50 48.6254 50.5422 50.7082 51.5836C52.791 52.625 54.6028 54.1371 56 56" stroke="white" stroke-width="2" stroke-linecap="round" stroke-linejoin="round"/>
<path d="M8 30C9.39721 28.1371 11.209 26.625 13.2918 25.5836C15.3746 24.5422 17.6713 24 20 24C22.3287 24 24.6254 24.5422 26.7082 25.5836C28.791 26.625 30.6028 28.1371 32 30C33.3972 28.1371 35.209 26.625 37.2918 25.5836C39.3746 24.5422 41.6713 24 44 24C46.3287 24 48.6254 24.5422 50.7082 25.5836C52.791 26.625 54.6028 28.1371 56 30" stroke="white" stroke-width="2" stroke-linecap="round" stroke-linejoin="round"/>
<path d="M20 50C24.4183 50 28 46.4183 28 42C28 37.5817 24.4183 34 20 34C15.5817 34 12 37.5817 12 42C12 46.4183 15.5817 50 20 50Z" stroke="white" stroke-width="2" stroke-linecap="round" stroke-linejoin="round"/>
<path d="M20 24C24.4183 24 28 20.4183 28 16C28 11.5817 24.4183 8 20 8C15.5817 8 12 11.5817 12 16C12 20.4183 15.5817 24 20 24Z" stroke="white" stroke-width="2" stroke-linecap="round" stroke-linejoin="round"/>
<path d="M44 50C48.4183 50 52 46.4183 52 42C52 37.5817 48.4183 34 44 34C39.5817 34 36 37.5817 36 42C36 46.4183 39.5817 50 44 50Z" stroke="white" stroke-width="2" stroke-linecap="round" stroke-linejoin="round"/>
<path d="M44 24C48.4183 24 52 20.4183 52 16C52 11.5817 48.4183 8 44 8C39.5817 8 36 11.5817 36 16C36 20.4183 39.5817 24 44 24Z" stroke="white" stroke-width="2" stroke-linecap="round" stroke-linejoin="round"/>
</g>
<defs>
<clipPath id="clip0_73_215240">
<rect width="64" height="64" fill="white"/>
</clipPath>
</defs>
</svg>
