<svg width="64" height="64" viewBox="0 0 64 64" fill="none" xmlns="http://www.w3.org/2000/svg">
<g clip-path="url(#clip0_73_215228)">
<path opacity="0.2" d="M38 40H48C50.6522 40 53.1957 38.9464 55.0711 37.0711C56.9464 35.1957 58 32.6522 58 30C58 27.3478 56.9464 24.8043 55.0711 22.9289C53.1957 21.0536 50.6522 20 48 20H38V40Z" fill="white"/>
<path d="M38 20V50.1675C38.0002 50.4964 38.0815 50.8202 38.2368 51.1102C38.392 51.4002 38.6164 51.6474 38.89 51.83L41.64 53.6625C41.9067 53.8403 42.2123 53.9515 42.531 53.9865C42.8497 54.0215 43.1721 53.9794 43.4711 53.8637C43.7701 53.748 44.0369 53.5622 44.249 53.3218C44.4612 53.0814 44.6124 52.7936 44.69 52.4825L48 40" stroke="white" stroke-width="2" stroke-linecap="round" stroke-linejoin="round"/>
<path d="M8 50.0023C8.00009 50.3832 8.10894 50.7561 8.31375 51.0772C8.51855 51.3984 8.8108 51.6544 9.15612 51.8151C9.50143 51.9758 9.88546 52.0345 10.263 51.9844C10.6406 51.9343 10.996 51.7775 11.2875 51.5323C24.3875 40.5423 38 40.0023 38 40.0023H48C50.6522 40.0023 53.1957 38.9487 55.0711 37.0734C56.9464 35.198 58 32.6544 58 30.0023C58 27.3501 56.9464 24.8066 55.0711 22.9312C53.1957 21.0559 50.6522 20.0023 48 20.0023H38C38 20.0023 24.3875 19.4623 11.2875 8.47478C10.9962 8.22972 10.641 8.07289 10.2637 8.02271C9.88631 7.97252 9.50247 8.03107 9.15725 8.19148C8.81202 8.35188 8.51974 8.60748 8.31475 8.92824C8.10976 9.24901 8.00057 9.62161 8 10.0023V50.0023Z" stroke="white" stroke-width="2" stroke-linecap="round" stroke-linejoin="round"/>
</g>
<defs>
<clipPath id="clip0_73_215228">
<rect width="64" height="64" fill="white"/>
</clipPath>
</defs>
</svg>
