<svg width="151" height="55" viewBox="0 0 151 55" fill="none" xmlns="http://www.w3.org/2000/svg">
<g clip-path="url(#clip0_139_7448)">
<path d="M50.3875 36.4517H44.2V18.9972H50.4386C52.1943 18.9972 53.7056 19.3466 54.9727 20.0455C56.2397 20.7386 57.2142 21.7358 57.896 23.0369C58.5835 24.3381 58.9272 25.8949 58.9272 27.7074C58.9272 29.5256 58.5835 31.0881 57.896 32.3949C57.2142 33.7017 56.234 34.7045 54.9556 35.4034C53.6829 36.1023 52.1602 36.4517 50.3875 36.4517ZM47.8903 33.2898H50.234C51.325 33.2898 52.2426 33.0966 52.9869 32.7102C53.7369 32.3182 54.2994 31.7131 54.6744 30.8949C55.0551 30.071 55.2454 29.0085 55.2454 27.7074C55.2454 26.4176 55.0551 25.3636 54.6744 24.5455C54.2994 23.7273 53.7397 23.125 52.9954 22.7386C52.2511 22.3523 51.3335 22.1591 50.2426 22.1591H47.8903V33.2898Z" fill="white"/>
<path d="M67.5586 36.7074C66.212 36.7074 65.0529 36.4347 64.0813 35.8892C63.1154 35.3381 62.3711 34.5597 61.8484 33.554C61.3257 32.5426 61.0643 31.3466 61.0643 29.9659C61.0643 28.6193 61.3257 27.4375 61.8484 26.4205C62.3711 25.4034 63.1069 24.6108 64.0558 24.0426C65.0103 23.4744 66.1296 23.1903 67.4137 23.1903C68.2774 23.1903 69.0813 23.3295 69.8257 23.608C70.5757 23.8807 71.2291 24.2926 71.7859 24.8438C72.3484 25.3949 72.7859 26.0881 73.0984 26.9233C73.4109 27.7528 73.5671 28.7244 73.5671 29.8381V30.8352H62.5132V28.5852H70.1495C70.1495 28.0625 70.0359 27.5994 69.8086 27.196C69.5813 26.7926 69.266 26.4773 68.8626 26.25C68.4649 26.017 68.0018 25.9006 67.4734 25.9006C66.9223 25.9006 66.4336 26.0284 66.0075 26.2841C65.587 26.5341 65.2575 26.8722 65.0188 27.2983C64.7802 27.7188 64.658 28.1875 64.6524 28.7045V30.8438C64.6524 31.4915 64.7717 32.0511 65.0103 32.5227C65.2546 32.9943 65.5984 33.358 66.0416 33.6136C66.4848 33.8693 67.0103 33.9972 67.6183 33.9972C68.0217 33.9972 68.391 33.9403 68.7262 33.8267C69.0615 33.7131 69.3484 33.5426 69.587 33.3153C69.8257 33.0881 70.0075 32.8097 70.1325 32.4801L73.4904 32.7017C73.32 33.5085 72.9705 34.2131 72.4421 34.8153C71.9194 35.4119 71.2433 35.8778 70.4137 36.2131C69.5899 36.5426 68.6382 36.7074 67.5586 36.7074Z" fill="white"/>
<path d="M87.7894 23.3608L83.2127 36.4517H79.1218L74.5451 23.3608H78.3804L81.0991 32.7273H81.2355L83.9457 23.3608H87.7894Z" fill="white"/>
<path d="M93.6446 36.4517L88.6502 18.9972H92.6815L95.5707 31.125H95.7156L98.9031 18.9972H102.355L105.534 31.1506H105.687L108.576 18.9972H112.608L107.613 36.4517H104.017L100.693 25.0398H100.556L97.2411 36.4517H93.6446Z" fill="white"/>
<path d="M114.515 36.4517V23.3608H118.145V36.4517H114.515ZM116.338 21.6733C115.799 21.6733 115.336 21.4943 114.949 21.1364C114.569 20.7727 114.378 20.3381 114.378 19.8324C114.378 19.3324 114.569 18.9034 114.949 18.5455C115.336 18.1818 115.799 18 116.338 18C116.878 18 117.338 18.1818 117.719 18.5455C118.105 18.9034 118.299 19.3324 118.299 19.8324C118.299 20.3381 118.105 20.7727 117.719 21.1364C117.338 21.4943 116.878 21.6733 116.338 21.6733Z" fill="white"/>
<path d="M131.946 27.0938L128.622 27.2983C128.565 27.0142 128.443 26.7585 128.255 26.5312C128.068 26.2983 127.821 26.1136 127.514 25.9773C127.213 25.8352 126.852 25.7642 126.431 25.7642C125.869 25.7642 125.395 25.8835 125.008 26.1222C124.622 26.3551 124.429 26.6676 124.429 27.0597C124.429 27.3722 124.554 27.6364 124.804 27.8523C125.054 28.0682 125.483 28.2415 126.091 28.3722L128.46 28.8494C129.733 29.1108 130.681 29.5313 131.306 30.1108C131.931 30.6903 132.244 31.4517 132.244 32.3949C132.244 33.2528 131.991 34.0057 131.485 34.6534C130.985 35.3011 130.298 35.8068 129.423 36.1705C128.554 36.5284 127.551 36.7074 126.414 36.7074C124.681 36.7074 123.301 36.3466 122.272 35.625C121.25 34.8977 120.65 33.9091 120.474 32.6591L124.045 32.4716C124.153 33 124.414 33.4034 124.829 33.6818C125.244 33.9545 125.775 34.0909 126.423 34.0909C127.059 34.0909 127.571 33.9688 127.957 33.7244C128.349 33.4744 128.548 33.1534 128.554 32.7614C128.548 32.4318 128.409 32.1619 128.136 31.9517C127.863 31.7358 127.443 31.571 126.875 31.4574L124.608 31.0057C123.329 30.75 122.378 30.3068 121.753 29.6761C121.133 29.0455 120.824 28.2415 120.824 27.2642C120.824 26.4233 121.051 25.6989 121.505 25.0909C121.966 24.483 122.61 24.0142 123.44 23.6847C124.275 23.3551 125.253 23.1903 126.372 23.1903C128.025 23.1903 129.326 23.5398 130.275 24.2386C131.23 24.9375 131.787 25.8892 131.946 27.0938Z" fill="white"/>
<path d="M140.496 36.7074C139.15 36.7074 137.99 36.4347 137.019 35.8892C136.053 35.3381 135.309 34.5597 134.786 33.554C134.263 32.5426 134.002 31.3466 134.002 29.9659C134.002 28.6193 134.263 27.4375 134.786 26.4205C135.309 25.4034 136.044 24.6108 136.993 24.0426C137.948 23.4744 139.067 23.1903 140.351 23.1903C141.215 23.1903 142.019 23.3295 142.763 23.608C143.513 23.8807 144.167 24.2926 144.723 24.8438C145.286 25.3949 145.723 26.0881 146.036 26.9233C146.348 27.7528 146.505 28.7244 146.505 29.8381V30.8352H135.451V28.5852H143.087C143.087 28.0625 142.973 27.5994 142.746 27.196C142.519 26.7926 142.204 26.4773 141.8 26.25C141.402 26.017 140.939 25.9006 140.411 25.9006C139.86 25.9006 139.371 26.0284 138.945 26.2841C138.525 26.5341 138.195 26.8722 137.956 27.2983C137.718 27.7188 137.596 28.1875 137.59 28.7045V30.8438C137.59 31.4915 137.709 32.0511 137.948 32.5227C138.192 32.9943 138.536 33.358 138.979 33.6136C139.422 33.8693 139.948 33.9972 140.556 33.9972C140.959 33.9972 141.329 33.9403 141.664 33.8267C141.999 33.7131 142.286 33.5426 142.525 33.3153C142.763 33.0881 142.945 32.8097 143.07 32.4801L146.428 32.7017C146.257 33.5085 145.908 34.2131 145.38 34.8153C144.857 35.4119 144.181 35.8778 143.351 36.2131C142.527 36.5426 141.576 36.7074 140.496 36.7074Z" fill="white"/>
<path fill-rule="evenodd" clip-rule="evenodd" d="M36.1264 29.0196C36.1751 28.5196 36.2 28.0127 36.2 27.5C36.2 27.1939 36.1911 26.8899 36.1736 26.5882H5.22633C5.20882 26.8899 5.19995 27.1939 5.19995 27.5C5.19995 28.0127 5.22485 28.5196 5.27349 29.0196H36.1264ZM35.318 32.6666H6.08191C6.38115 33.5133 6.75186 34.3261 7.18679 35.098H34.2131C34.648 34.3261 35.0188 33.5133 35.318 32.6666ZM31.3677 38.7451H10.0322C12.8111 41.3821 16.5666 43 20.7 43C24.8333 43 28.5888 41.3821 31.3677 38.7451ZM5.88123 22.9411H35.5187C35.2595 22.0978 34.9304 21.285 34.5379 20.5098H6.86196C6.46955 21.285 6.14038 22.0978 5.88123 22.9411ZM9.42613 16.8627H31.9738C29.1477 13.8686 25.1421 12 20.7 12C16.2578 12 12.2522 13.8686 9.42613 16.8627Z" fill="white"/>
<path fill-rule="evenodd" clip-rule="evenodd" d="M36.1264 29.0196C36.1751 28.5196 36.2 28.0127 36.2 27.5C36.2 27.1939 36.1911 26.8899 36.1736 26.5882H5.22633C5.20882 26.8899 5.19995 27.1939 5.19995 27.5C5.19995 28.0127 5.22485 28.5196 5.27349 29.0196H36.1264ZM35.318 32.6666H6.08191C6.38115 33.5133 6.75186 34.3261 7.18679 35.098H34.2131C34.648 34.3261 35.0188 33.5133 35.318 32.6666ZM31.3677 38.7451H10.0322C12.8111 41.3821 16.5666 43 20.7 43C24.8333 43 28.5888 41.3821 31.3677 38.7451ZM5.88123 22.9411H35.5187C35.2595 22.0978 34.9304 21.285 34.5379 20.5098H6.86196C6.46955 21.285 6.14038 22.0978 5.88123 22.9411ZM9.42613 16.8627H31.9738C29.1477 13.8686 25.1421 12 20.7 12C16.2578 12 12.2522 13.8686 9.42613 16.8627Z" fill="white"/>
</g>
<defs>
<clipPath id="clip0_139_7448">
<rect width="150.4" height="54.144" fill="white" transform="translate(0.199951)"/>
</clipPath>
</defs>
</svg>
