<svg width="151" height="55" viewBox="0 0 151 55" fill="none" xmlns="http://www.w3.org/2000/svg">
<g clip-path="url(#clip0_139_7419)">
<mask id="mask0_139_7419" style="mask-type:luminance" maskUnits="userSpaceOnUse" x="0" y="0" width="151" height="55">
<path d="M150.8 0H0.399902V54.144H150.8V0Z" fill="white"/>
</mask>
<g mask="url(#mask0_139_7419)">
<path d="M65.817 20.6289V38.0342H61.5772V30.8687H54.982V38.0342H50.7422V20.6289H54.982V27.4472H61.5772V20.6289H65.817Z" fill="white"/>
<path d="M70.0185 22.7611C69.2746 22.7611 68.6631 22.5463 68.1839 22.1165C67.721 21.6702 67.4895 21.1247 67.4895 20.4801C67.4895 19.8189 67.721 19.2735 68.1839 18.8437C68.6631 18.3974 69.2746 18.1743 70.0185 18.1743C70.7458 18.1743 71.341 18.3974 71.8036 18.8437C72.2831 19.2735 72.5227 19.8189 72.5227 20.4801C72.5227 21.1247 72.2831 21.6702 71.8036 22.1165C71.341 22.5463 70.7458 22.7611 70.0185 22.7611ZM72.126 24.1992V38.0341H67.8863V24.1992H72.126Z" fill="white"/>
<path d="M81.9167 34.4392V38.0342H79.76C78.2229 38.0342 77.0242 37.6622 76.1647 36.9186C75.3054 36.1581 74.8757 34.9269 74.8757 33.2243V27.72H73.1897V24.1992H74.8757V20.8273H79.1155V24.1992H81.8919V27.72H79.1155V33.2738C79.1155 33.6872 79.2148 33.9845 79.4126 34.1664C79.6111 34.3483 79.942 34.4392 80.4045 34.4392H81.9167Z" fill="white"/>
<path d="M96.3288 30.8937C96.3288 31.2904 96.3039 31.7038 96.2543 32.1334H86.6595C86.7257 32.993 86.9979 33.6541 87.4777 34.117C87.9733 34.5632 88.5764 34.7866 89.287 34.7866C90.3451 34.7866 91.0806 34.34 91.4942 33.4474H96.0062C95.7753 34.3566 95.3534 35.1748 94.742 35.9021C94.1472 36.6294 93.3952 37.1998 92.486 37.6128C91.5769 38.0262 90.5602 38.2328 89.4359 38.2328C88.0808 38.2328 86.8739 37.9434 85.8165 37.3651C84.7585 36.7865 83.932 35.9601 83.3365 34.8857C82.7416 33.8112 82.4446 32.5549 82.4446 31.117C82.4446 29.6787 82.7333 28.4226 83.3124 27.3482C83.9072 26.2738 84.7337 25.4473 85.7917 24.8688C86.849 24.2903 88.0643 24.0011 89.4359 24.0011C90.7752 24.0011 91.9649 24.282 93.0064 24.8441C94.0479 25.4061 94.8578 26.2077 95.4361 27.2491C96.031 28.2904 96.3288 29.5053 96.3288 30.8937ZM91.9897 29.7781C91.9897 29.0508 91.7423 28.4722 91.246 28.0424C90.7504 27.6127 90.13 27.3978 89.387 27.3978C88.6757 27.3978 88.0726 27.6045 87.5762 28.0177C87.0972 28.4309 86.7994 29.0177 86.6844 29.7781H91.9897Z" fill="white"/>
<path d="M96.731 31.117C96.731 29.6787 97.0197 28.4226 97.5988 27.3482C98.1936 26.2738 99.0118 25.4473 100.053 24.8688C101.111 24.2903 102.318 24.0011 103.673 24.0011C105.408 24.0011 106.854 24.4556 108.012 25.3647C109.186 26.2738 109.954 27.5548 110.317 29.2078H105.805C105.425 28.1499 104.689 27.6209 103.598 27.6209C102.821 27.6209 102.202 27.9268 101.739 28.5384C101.276 29.1334 101.044 29.993 101.044 31.117C101.044 32.241 101.276 33.1087 101.739 33.7202C102.202 34.3152 102.821 34.6128 103.598 34.6128C104.689 34.6128 105.425 34.0841 105.805 33.0259H110.317C109.954 34.646 109.186 35.9187 108.012 36.8442C106.838 37.77 105.392 38.2328 103.673 38.2328C102.318 38.2328 101.111 37.9434 100.053 37.3651C99.0118 36.7865 98.1936 35.9601 97.5988 34.8857C97.0197 33.8112 96.731 32.5549 96.731 31.117Z" fill="white"/>
<path d="M120.098 24.0505C121.685 24.0505 122.958 24.5794 123.917 25.6373C124.875 26.6786 125.355 28.1167 125.355 29.9514V38.0342H121.14V30.5216C121.14 29.5961 120.9 28.877 120.421 28.3646C119.941 27.8522 119.296 27.5961 118.487 27.5961C117.677 27.5961 117.032 27.8522 116.552 28.3646C116.073 28.877 115.834 29.5961 115.834 30.5216V38.0342H111.594V19.6868H115.834V26.0588C116.264 25.4472 116.85 24.9596 117.594 24.596C118.338 24.2323 119.172 24.0505 120.098 24.0505Z" fill="white"/>
<path d="M28.7893 28.9363V13.8861H33.8071V21.6226C34.6829 21.2846 35.6346 21.0992 36.6296 21.0992C40.9597 21.0992 44.4699 24.6095 44.4699 28.9396V38.0343H39.4521V28.9396C39.4521 27.3808 38.1884 26.117 36.6296 26.117C35.0714 26.117 33.8082 27.3796 33.8071 28.9375V28.9396V38.0343H28.7893V28.9396V28.9363Z" fill="white"/>
<path d="M39.4519 18.9039V13.8861H44.4695V18.9039H39.4519Z" fill="white"/>
</g>
</g>
<defs>
<clipPath id="clip0_139_7419">
<rect width="150.4" height="54.144" fill="white" transform="translate(0.399902)"/>
</clipPath>
</defs>
</svg>
