<svg width="151" height="55" viewBox="0 0 151 55" fill="none" xmlns="http://www.w3.org/2000/svg">
<g clip-path="url(#clip0_139_7406)">
<mask id="mask0_139_7406" style="mask-type:luminance" maskUnits="userSpaceOnUse" x="0" y="0" width="151" height="55">
<path d="M150.4 0H0V54.144H150.4V0Z" fill="white"/>
</mask>
<g mask="url(#mask0_139_7406)">
<path d="M61.6489 19.2883H64.8914V36.7475H61.6489V19.2883Z" fill="white"/>
<path d="M75.6249 23.2792C77.3041 23.2792 78.651 23.7697 79.6654 24.7508C80.6799 25.7318 81.1867 27.1867 81.1867 29.1155V36.7476H78.0689V29.5148C78.0689 28.3507 77.7944 27.4777 77.2462 26.8958C76.6973 26.2972 75.9159 25.9978 74.9017 25.9978C73.7542 25.9978 72.8478 26.347 72.1829 27.0454C71.5178 27.7272 71.185 28.7167 71.185 30.0134V36.7476H68.0674V23.4288H71.0355V25.1499C71.551 24.5346 72.1995 24.069 72.9811 23.7531C73.7627 23.4372 74.6439 23.2792 75.6249 23.2792Z" fill="white"/>
<path d="M96.1221 23.4287L90.4099 36.7475H87.1929L81.4814 23.4287H84.7233L88.8638 33.3056L93.1292 23.4287H96.1221Z" fill="white"/>
<path d="M108.979 30.1631C108.979 30.3794 108.963 30.6867 108.929 31.086H98.4781C98.6616 32.067 99.1354 32.8485 99.9002 33.4306C100.681 33.996 101.646 34.2786 102.793 34.2786C104.256 34.2786 105.462 33.7963 106.41 32.8319L108.081 34.7524C107.483 35.4675 106.726 36.0078 105.812 36.3735C104.896 36.7395 103.866 36.9223 102.719 36.9223C101.255 36.9223 99.9671 36.6313 98.8526 36.0496C97.7389 35.4675 96.8741 34.6608 96.259 33.63C95.6596 32.5825 95.3611 31.4018 95.3611 30.0884C95.3611 28.7913 95.6521 27.6274 96.2342 26.5965C96.832 25.5489 97.6554 24.7341 98.703 24.1522C99.7505 23.5702 100.931 23.2792 102.245 23.2792C103.541 23.2792 104.697 23.5702 105.712 24.1522C106.743 24.7175 107.54 25.524 108.106 26.5715C108.688 27.6024 108.979 28.7998 108.979 30.1631ZM102.245 25.7734C101.247 25.7734 100.399 26.0726 99.7009 26.6713C99.0188 27.2533 98.603 28.0348 98.4533 29.0158H106.011C105.878 28.0514 105.47 27.2699 104.789 26.6713C104.107 26.0726 103.259 25.7734 102.245 25.7734Z" fill="white"/>
<path d="M113.695 25.3741C114.593 23.9774 116.173 23.5284 118.434 23.5284V26.0227C118.168 25.9727 117.927 25.9478 117.71 25.9478C116.497 25.9478 115.549 26.5298 114.867 27.2448C114.186 27.9431 113.844 28.9573 113.844 30.2877V36.7475H110.727V23.4287H113.695V25.3741Z" fill="white"/>
<path d="M128.952 36.0243C128.586 36.3235 128.138 36.5481 127.605 36.6977C127.09 36.8476 126.541 36.9222 125.959 36.9222C124.496 36.9222 123.366 36.5399 122.567 35.775C121.769 35.0101 121.37 33.8959 121.37 32.4328V26.0226H119.176V23.5285H121.37V20.4856H124.488V23.5285H128.054V26.0226H124.488V32.3579C124.488 33.0065 124.646 33.505 124.961 33.8544C125.277 34.1869 125.734 34.3534 126.333 34.3534C127.032 34.3534 127.614 34.1703 128.079 33.8046L128.952 36.0243Z" fill="white"/>
<path fill-rule="evenodd" clip-rule="evenodd" d="M53.4952 28.0696C53.4952 36.9032 46.3345 44.064 37.5009 44.064C28.6675 44.064 21.5066 36.9032 21.5066 28.0696C21.5066 19.2362 28.6675 12.0753 37.5009 12.0753C46.3345 12.0753 53.4952 19.2362 53.4952 28.0696ZM48.4686 28.0696C48.4686 34.1267 43.5584 39.037 37.5013 39.037C37.0813 39.037 36.6668 39.0135 36.259 38.9677C41.7711 38.3885 46.067 33.7263 46.067 28.0605C46.067 22.4234 41.8138 17.7795 36.3414 17.1627C36.7226 17.1227 37.1095 17.1021 37.5013 17.1021C43.5584 17.1021 48.4686 22.0125 48.4686 28.0696ZM33.9593 35.7949C37.574 35.1564 40.3234 31.9406 40.3234 28.0696C40.3234 24.1985 37.574 20.9828 33.9593 20.3445C34.3967 20.2687 34.8465 20.2293 35.3056 20.2293C39.6357 20.2293 43.146 23.7395 43.146 28.0696C43.146 32.3997 39.6357 35.91 35.3056 35.91C34.8465 35.91 34.3967 35.8705 33.9593 35.7949Z" fill="white"/>
</g>
</g>
<defs>
<clipPath id="clip0_139_7406">
<rect width="150.4" height="54.144" fill="white"/>
</clipPath>
</defs>
</svg>
