<svg width="152" height="55" viewBox="0 0 152 55" fill="none" xmlns="http://www.w3.org/2000/svg">
<g clip-path="url(#clip0_139_7433)">
<mask id="mask0_139_7433" style="mask-type:luminance" maskUnits="userSpaceOnUse" x="0" y="0" width="152" height="55">
<path d="M151.2 0H0.800049V54.144H151.2V0Z" fill="white"/>
</mask>
<g mask="url(#mask0_139_7433)">
<path d="M30.7673 42.6437H20.6475L30.7673 27.3405H40.8872L30.7673 42.6437Z" fill="white"/>
<path d="M27.0649 11.5437H37.4315L27.0649 27.3404H16.6982L27.0649 11.5437Z" fill="white"/>
<path d="M61.5318 24.8565C61.5318 25.7949 61.3055 26.6748 60.853 27.4961C60.4173 28.3171 59.7219 28.9791 58.7668 29.4819C57.8282 29.9846 56.6385 30.236 55.1972 30.236H52.2559V36.9728H48.7368V19.4269H55.1972C56.5546 19.4269 57.7109 19.6615 58.6661 20.1308C59.6215 20.5999 60.3335 21.2451 60.803 22.0663C61.289 22.8874 61.5318 23.8176 61.5318 24.8565ZM55.0462 27.3954C56.0183 27.3954 56.7388 27.1777 57.2082 26.7417C57.6774 26.2895 57.912 25.661 57.912 24.8565C57.912 23.1472 56.9569 22.2925 55.0462 22.2925H52.2559V27.3954H55.0462Z" fill="white"/>
<path d="M66.5443 25.2084C66.9968 24.4711 67.5832 23.8928 68.3039 23.4739C69.0413 23.055 69.8792 22.8455 70.8177 22.8455V26.5406H69.8875C68.7816 26.5406 67.9437 26.8003 67.3739 27.3201C66.8209 27.8396 66.5443 28.7444 66.5443 30.0348V36.9727H63.0251V23.0466H66.5443V25.2084Z" fill="white"/>
<path d="M78.3667 37.1991C77.0259 37.1991 75.8191 36.9058 74.7467 36.3194C73.6742 35.7161 72.8277 34.8697 72.2078 33.7803C71.6045 32.691 71.3027 31.4343 71.3027 30.0097C71.3027 28.5854 71.6129 27.3284 72.233 26.2392C72.8698 25.1498 73.7328 24.312 74.8222 23.7254C75.9115 23.1221 77.1267 22.8204 78.4675 22.8204C79.8075 22.8204 81.0228 23.1221 82.1117 23.7254C83.2013 24.312 84.0556 25.1498 84.676 26.2392C85.3129 27.3284 85.631 28.5854 85.631 30.0097C85.631 31.4343 85.3047 32.691 84.6512 33.7803C84.0142 34.8697 83.1427 35.7161 82.0365 36.3194C80.9476 36.9058 79.7241 37.1991 78.3667 37.1991ZM78.3667 34.1322C79.0029 34.1322 79.5985 33.9814 80.1512 33.6799C80.7212 33.3615 81.1739 32.8921 81.5086 32.2722C81.844 31.652 82.0117 30.898 82.0117 30.0097C82.0117 28.6858 81.6597 27.672 80.9559 26.968C80.2685 26.2474 79.4225 25.8873 78.4171 25.8873C77.4117 25.8873 76.5649 26.2474 75.8781 26.968C75.2075 27.672 74.8726 28.6858 74.8726 30.0097C74.8726 31.3336 75.1992 32.356 75.8529 33.0766C76.5228 33.7803 77.3613 34.1322 78.3667 34.1322Z" fill="white"/>
<path d="M90.7264 34.1825H94.5059V36.9728H87.207V17.265H90.7264V34.1825Z" fill="white"/>
<path d="M97.236 21.3876C96.6163 21.3876 96.0967 21.1949 95.6778 20.8094C95.2755 20.4072 95.074 19.9129 95.074 19.3263C95.074 18.7398 95.2755 18.2538 95.6778 17.8683C96.0967 17.4662 96.6163 17.265 97.236 17.265C97.8564 17.265 98.367 17.4662 98.7693 17.8683C99.1882 18.2538 99.398 18.7398 99.398 19.3263C99.398 19.9129 99.1882 20.4072 98.7693 20.8094C98.367 21.1949 97.8564 21.3876 97.236 21.3876ZM98.9701 23.0467V36.9728H95.4515V23.0467H98.9701Z" fill="white"/>
<path d="M109.16 22.8455C110.819 22.8455 112.159 23.3734 113.181 24.4292C114.203 25.4681 114.715 26.9262 114.715 28.803V36.9727H111.195V29.2808C111.195 28.1746 110.919 27.3284 110.366 26.7416C109.812 26.1384 109.059 25.8368 108.104 25.8368C107.132 25.8368 106.361 26.1384 105.791 26.7416C105.238 27.3284 104.961 28.1746 104.961 29.2808V36.9727H101.442V23.0466H104.961V24.7811C105.43 24.1778 106.025 23.7085 106.747 23.3734C107.483 23.0214 108.288 22.8455 109.16 22.8455Z" fill="white"/>
<path d="M130.001 29.7082C130.001 30.2109 129.968 30.6634 129.9 31.0656H119.72C119.803 32.0711 120.156 32.8587 120.776 33.4284C121.396 33.9983 122.159 34.2832 123.063 34.2832C124.37 34.2832 125.3 33.7217 125.854 32.5989H129.649C129.247 33.9397 128.476 35.0455 127.337 35.9172C126.197 36.7717 124.798 37.1991 123.138 37.1991C121.798 37.1991 120.591 36.9058 119.519 36.3194C118.463 35.7161 117.634 34.8697 117.03 33.7803C116.444 32.691 116.15 31.4343 116.15 30.0097C116.15 28.5686 116.444 27.3033 117.03 26.214C117.617 25.1247 118.438 24.2868 119.494 23.7003C120.549 23.1137 121.765 22.8204 123.138 22.8204C124.463 22.8204 125.644 23.1053 126.683 23.6751C127.738 24.2449 128.552 25.0576 129.121 26.1136C129.708 27.1526 130.001 28.3506 130.001 29.7082ZM126.356 28.7027C126.34 27.7976 126.013 27.0771 125.376 26.5407C124.739 25.9877 123.96 25.7113 123.038 25.7113C122.167 25.7113 121.429 25.9794 120.826 26.5158C120.24 27.0352 119.879 27.7642 119.745 28.7027H126.356Z" fill="white"/>
</g>
</g>
<defs>
<clipPath id="clip0_139_7433">
<rect width="150.4" height="54.144" fill="white" transform="translate(0.800049)"/>
</clipPath>
</defs>
</svg>
