<svg width="151" height="55" viewBox="0 0 151 55" fill="none" xmlns="http://www.w3.org/2000/svg">
<path d="M35.9062 14.7893L22 31.4769H34.5155L33.1249 42.6017L47.0311 25.9143H34.5155L35.9062 14.7893Z" fill="white"/>
<path d="M66.7191 26.4214V31.5692H59.294V38.6198H53.46V17.7172H68.279V22.8648H59.294V26.4214H66.7191Z" fill="white"/>
<path d="M76.415 17.7172V38.6198H71.0488V17.7172H76.415Z" fill="white"/>
<path d="M85.2697 22.2408C86.1014 22.2408 86.9121 22.428 87.7024 22.8024C88.5138 23.156 89.1794 23.6135 89.6997 24.1751V22.7088H95.066V38.6198H89.6997V35.9681C89.3042 36.8416 88.7011 37.5799 87.8904 38.1832C87.079 38.7863 86.1014 39.0878 84.9576 39.0878C83.7717 39.0878 82.6588 38.7863 81.6195 38.1832C80.5795 37.5799 79.7264 36.6544 79.0611 35.4065C78.4163 34.1376 78.0938 32.5466 78.0938 30.6331C78.0938 28.8444 78.4163 27.3261 79.0611 26.0782C79.7264 24.8303 80.6005 23.8839 81.6819 23.2391C82.7843 22.5736 83.98 22.2408 85.2697 22.2408ZM86.3924 27.4821C85.6232 27.4821 84.9779 27.7941 84.4583 28.4181C83.959 29.042 83.7093 29.7804 83.7093 30.6331C83.7093 31.486 83.9695 32.2036 84.4891 32.7857C85.0095 33.3681 85.6961 33.6594 86.5489 33.6594C87.0061 33.6594 87.4738 33.5448 87.9528 33.3162C88.4304 33.0666 88.8364 32.7025 89.1688 32.2243C89.523 31.7251 89.6997 31.0907 89.6997 30.3212V28.7924C89.2418 28.4181 88.7221 28.1061 88.1393 27.8565C87.5783 27.6069 86.9956 27.4821 86.3924 27.4821Z" fill="white"/>
<path d="M103.389 22.2408C104.429 22.2408 105.386 22.3968 106.259 22.7088C107.154 23 107.871 23.4055 108.412 23.9255V28.1373C107.871 27.8045 107.257 27.4925 106.572 27.2013C105.885 26.8893 105.146 26.7334 104.356 26.7334C103.857 26.7334 103.41 26.8374 103.015 27.0454C102.64 27.2325 102.453 27.5341 102.453 27.9501C102.453 28.2413 102.568 28.4597 102.797 28.6052C103.025 28.7508 103.473 28.9068 104.138 29.0732L105.105 29.3228C107.871 30.03 109.254 31.5171 109.254 33.7842C109.254 34.8241 108.943 35.7495 108.318 36.5609C107.715 37.3512 106.914 37.9749 105.917 38.4326C104.938 38.8695 103.878 39.0878 102.734 39.0878C101.548 39.0878 100.446 38.9215 99.4268 38.5886C98.4078 38.2351 97.534 37.8086 96.8061 37.3096V33.1291C97.5551 33.5864 98.3973 33.9713 99.3335 34.2832C100.29 34.5953 101.143 34.7513 101.892 34.7513C102.495 34.7513 102.932 34.6785 103.202 34.533C103.493 34.3874 103.639 34.1273 103.639 33.753C103.639 33.4617 103.473 33.2434 103.139 33.0978C102.806 32.9315 102.329 32.7441 101.705 32.5362L100.113 32.0369C98.9485 31.6835 98.0958 31.1323 97.5551 30.3835C97.0144 29.614 96.7437 28.678 96.7437 27.5757C96.7437 26.4734 97.0347 25.527 97.6175 24.7367C98.1995 23.9463 98.9899 23.3327 99.9885 22.896C101.007 22.4592 102.141 22.2408 103.389 22.2408Z" fill="white"/>
<path d="M120.323 22.2409C121.946 22.2409 123.266 22.792 124.285 23.8944C125.325 24.9967 125.845 26.6294 125.845 28.7925V38.6198H120.479L120.448 29.6349C120.448 28.8445 120.23 28.2933 119.793 27.9813C119.356 27.6485 118.867 27.4822 118.327 27.4822C117.744 27.4822 117.256 27.6381 116.86 27.9502C116.465 28.2413 116.122 28.5949 115.831 29.0108V38.6198H110.464V17.7172H115.831V24.7679C116.33 24.0816 116.933 23.4888 117.64 22.9897C118.368 22.4905 119.263 22.2409 120.323 22.2409Z" fill="white"/>
<path d="M125.575 17.8389V18.5027H124.776V20.5222H124.018V18.5027H123.218V17.8389H125.575Z" fill="white"/>
<path d="M128.689 17.7987V20.5343H127.931V19.2067L127.376 19.8303H127.148L126.593 19.2067V20.5343H125.834V17.7987H126.102L127.262 18.9654L128.422 17.7987H128.689Z" fill="white"/>
</svg>
