<svg width="77" height="77" viewBox="0 0 77 77" fill="none" xmlns="http://www.w3.org/2000/svg">
<circle cx="38.5" cy="38.5" r="38.5" fill="white"/>
<g clip-path="url(#clip0_88_1752)">
<path d="M58.25 38.5C58.2511 38.9669 58.1314 39.4261 57.9025 39.833C57.6736 40.2399 57.3433 40.5806 56.9437 40.822L32.18 55.9711C31.7625 56.2268 31.2843 56.3663 30.7948 56.3754C30.3053 56.3845 29.8223 56.2627 29.3956 56.0227C28.973 55.7864 28.6209 55.4418 28.3757 55.0243C28.1304 54.6068 28.0007 54.1315 28 53.6473V23.3527C28.0007 22.8685 28.1304 22.3932 28.3757 21.9757C28.6209 21.5582 28.973 21.2136 29.3956 20.9773C29.8223 20.7373 30.3053 20.6156 30.7948 20.6246C31.2843 20.6337 31.7625 20.7733 32.18 21.0289L56.9437 36.178C57.3433 36.4194 57.6736 36.7601 57.9025 37.167C58.1314 37.5739 58.2511 38.0331 58.25 38.5Z" fill="#1A1241"/>
</g>
<defs>
<clipPath id="clip0_88_1752">
<rect width="44" height="44" fill="white" transform="translate(17 16.5)"/>
</clipPath>
</defs>
</svg>
